# xmcd
#
# Track frame offsets:
#	150
#	11541
#	23008
#	32038
#	45255
#	54393
#	66777
#	79349
#	93543
#
# Disc length: 1396 seconds
#
# Revision: 1
# Processed by: cddbd v1.5.2PL0 Copyright (c) Steve Scherf et al.
# Submitted via: audiograbber 1.83.01
#
DISCID=64057209
DTITLE=Fats Domino - When My Dreamboat Comes Homes
DYEAR=1966
DGENRE=Blues/Rock&Roll
TTITLE0=When My Dreanboat Comes Homes
TTITLE1=I've Got A Right To Cry 
TTITLE2=Slow Boat To China
TTITLE3=Trouble In Mind
TTITLE4=Ballin' The Jack
TTITLE5=Red Sails In The Sunset
TTITLE6=Why Don't You Do Right
TTITLE7=Heartbreak Hill
TTITLE8=Kansas City
EXTD=
EXTT0=
EXTT1=
EXTT2=
EXTT3=
EXTT4=
EXTT5=
EXTT6=
EXTT7=
EXTT8=
PLAYORDER=
